<svg width="14" height="14" viewBox="0 0 14 14" fill="none" xmlns="http://www.w3.org/2000/svg">
<path d="M2.33337 8.16607C2.22298 8.16645 2.11475 8.13549 2.02126 8.07681C1.92776 8.01812 1.85284 7.93411 1.80519 7.83454C1.75754 7.73496 1.73912 7.62391 1.75208 7.51429C1.76503 7.40466 1.80882 7.30096 1.87837 7.21524L7.65337 1.26524C7.69669 1.21523 7.75572 1.18144 7.82078 1.16941C7.88583 1.15738 7.95304 1.16783 8.01138 1.19903C8.06972 1.23023 8.11571 1.28034 8.14182 1.34113C8.16792 1.40192 8.17258 1.46978 8.15504 1.53357L7.03504 5.04524C7.00201 5.13363 6.99092 5.22871 7.00271 5.32232C7.01451 5.41594 7.04884 5.5053 7.10276 5.58274C7.15667 5.66017 7.22857 5.72337 7.31228 5.76691C7.39599 5.81046 7.48901 5.83304 7.58337 5.83274H11.6667C11.7771 5.83236 11.8853 5.86331 11.9788 5.922C12.0723 5.98069 12.1472 6.0647 12.1949 6.16427C12.2425 6.26384 12.2609 6.37489 12.248 6.48452C12.235 6.59414 12.1912 6.69784 12.1217 6.78357L6.3467 12.7336C6.30338 12.7836 6.24435 12.8174 6.1793 12.8294C6.11424 12.8414 6.04703 12.831 5.98869 12.7998C5.93036 12.7686 5.88436 12.7185 5.85826 12.6577C5.83215 12.5969 5.82749 12.529 5.84504 12.4652L6.96504 8.95357C6.99806 8.86518 7.00915 8.7701 6.99736 8.67648C6.98556 8.58287 6.95123 8.49351 6.89732 8.41607C6.8434 8.33864 6.7715 8.27544 6.68779 8.23189C6.60408 8.18835 6.51106 8.16576 6.4167 8.16607H2.33337Z" stroke="#6B21A8" stroke-linecap="round" stroke-linejoin="round"/>
</svg>
