<svg width="35" height="34" viewBox="0 0 35 34" fill="none" xmlns="http://www.w3.org/2000/svg">
<path d="M25.6166 18.1664C26.3842 18.1704 27.1412 17.989 27.8219 17.6377C28.5025 17.2864 29.0862 16.776 29.5222 16.1508C29.9582 15.5256 30.2333 14.8045 30.3237 14.0502C30.414 13.2958 30.3169 12.531 30.0407 11.8223C29.7645 11.1135 29.3176 10.4822 28.7389 9.9832C28.1601 9.48419 27.467 9.13258 26.7197 8.9589C25.9724 8.78523 25.1935 8.79475 24.4508 8.98664C23.7081 9.17852 23.0239 9.54697 22.4578 10.06L17.2481 7.99838C17.3227 7.69965 17.3623 7.39339 17.3659 7.08567C17.3667 6.14594 17.0398 5.23471 16.4404 4.50579C15.8411 3.77687 15.0059 3.27489 14.076 3.08459C13.146 2.89429 12.1782 3.0273 11.3358 3.46119C10.4935 3.89508 9.8282 4.60327 9.45226 5.46624C9.07632 6.3292 9.01274 7.2941 9.27227 8.19806C9.5318 9.10203 10.0985 9.88971 10.8768 10.4282C11.6551 10.9666 12.5973 11.2229 13.5444 11.1537C14.4914 11.0845 15.3853 10.694 16.0753 10.0483L21.1554 12.0574C20.8857 12.8055 20.8297 13.6126 20.9933 14.3902L13.0225 17.8894C12.4871 17.0936 11.7182 16.4792 10.8194 16.1287C9.92053 15.7783 8.93478 15.7087 7.99475 15.9293C7.05471 16.1498 6.20549 16.65 5.5613 17.3625C4.91711 18.075 4.50887 18.9656 4.39149 19.9145C4.27411 20.8635 4.45321 21.8252 4.90472 22.6704C5.35622 23.5156 6.05846 24.2037 6.91698 24.6422C7.7755 25.0806 8.7491 25.2483 9.70684 25.1228C10.6646 24.9973 11.5605 24.5845 12.2741 23.94L17.4838 26.0016C17.4091 26.3004 17.3696 26.6066 17.3659 26.9143C17.3652 27.8541 17.692 28.7653 18.2914 29.4942C18.8908 30.2231 19.7259 30.7251 20.6559 30.9154C21.5858 31.1057 22.5536 30.9727 23.396 30.5388C24.2384 30.1049 24.9036 29.3967 25.2796 28.5338C25.6555 27.6708 25.7191 26.7059 25.4596 25.8019C25.2 24.898 24.6333 24.1103 23.855 23.5718C23.0767 23.0334 22.1345 22.7771 21.1875 22.8463C20.2404 22.9155 19.3465 23.306 18.6566 23.9517L13.5765 21.9572C13.7391 21.4877 13.8247 20.9954 13.8299 20.4992C13.8299 20.365 13.8004 20.2397 13.7887 20.1084L22.0394 16.4868C22.4756 17.0082 23.0219 17.4288 23.6399 17.7189C24.2579 18.0091 24.9326 18.1618 25.6166 18.1664ZM9.11522 22.832C8.64898 22.832 8.19322 22.6951 7.80555 22.4388C7.41789 22.1825 7.11574 21.8182 6.93732 21.3919C6.7589 20.9656 6.71222 20.4966 6.80318 20.0441C6.89413 19.5916 7.11865 19.1759 7.44833 18.8496C7.77801 18.5234 8.19805 18.3012 8.65533 18.2112C9.11261 18.1212 9.58659 18.1674 10.0173 18.344C10.4481 18.5205 10.8163 18.8195 11.0753 19.2031C11.3343 19.5868 11.4726 20.0378 11.4726 20.4992C11.4726 21.1179 11.2242 21.7112 10.7821 22.1487C10.34 22.5862 9.74043 22.832 9.11522 22.832ZM21.4913 25.1647C21.841 25.1647 22.1828 25.2673 22.4735 25.4596C22.7643 25.6518 22.9909 25.9251 23.1247 26.2448C23.2585 26.5645 23.2935 26.9163 23.2253 27.2557C23.1571 27.595 22.9887 27.9068 22.7414 28.1515C22.4942 28.3962 22.1792 28.5628 21.8362 28.6303C21.4932 28.6978 21.1377 28.6632 20.8147 28.5307C20.4916 28.3983 20.2155 28.1741 20.0212 27.8863C19.827 27.5986 19.7233 27.2604 19.7233 26.9143C19.7224 26.7259 19.7533 26.5387 19.8146 26.3603C19.9321 26.0122 20.1572 25.7094 20.458 25.4949C20.7589 25.2803 21.1204 25.1648 21.4913 25.1647ZM25.6166 11.168C26.0829 11.168 26.5386 11.3049 26.9263 11.5612C27.314 11.8175 27.6161 12.1818 27.7945 12.6081C27.9729 13.0344 28.0196 13.5034 27.9287 13.9559C27.8377 14.4084 27.6132 14.8241 27.2835 15.1504C26.9538 15.4766 26.5338 15.6988 26.0765 15.7888C25.6192 15.8788 25.1453 15.8326 24.7145 15.656C24.2838 15.4795 23.9156 15.1805 23.6566 14.7969C23.3975 14.4132 23.2593 13.9622 23.2593 13.5008C23.2593 12.8821 23.5076 12.2888 23.9497 11.8513C24.3918 11.4138 24.9914 11.168 25.6166 11.168ZM13.2406 8.83526C12.8909 8.83526 12.5491 8.73265 12.2583 8.5404C11.9676 8.34816 11.741 8.07491 11.6071 7.75521C11.4733 7.43552 11.4383 7.08373 11.5065 6.74435C11.5748 6.40496 11.7431 6.09321 11.9904 5.84853C12.2377 5.60385 12.5527 5.43721 12.8957 5.36971C13.2386 5.3022 13.5941 5.33685 13.9172 5.46927C14.2402 5.60169 14.5163 5.82594 14.7106 6.11366C14.9049 6.40137 15.0086 6.73964 15.0086 7.08567C15.0094 7.27409 14.9785 7.46133 14.9172 7.63971C14.7998 7.98783 14.5747 8.29059 14.2738 8.50515C13.9729 8.7197 13.6114 8.83519 13.2406 8.83526Z" fill="white"/>
</svg>
