<svg width="19" height="18" viewBox="0 0 19 18" fill="none" xmlns="http://www.w3.org/2000/svg">
<path d="M17.9098 12.7618C17.9098 13.2169 17.729 13.6534 17.4072 13.9752C17.0854 14.297 16.6489 14.4778 16.1938 14.4778H4.89237C4.4373 14.4779 4.0009 14.6588 3.67917 14.9806L1.78988 16.8699C1.70469 16.9551 1.59615 17.0131 1.47799 17.0366C1.35984 17.0601 1.23736 17.048 1.12606 17.0019C1.01476 16.9558 0.919627 16.8777 0.852689 16.7776C0.785751 16.6774 0.750016 16.5596 0.75 16.4392V2.46598C0.75 2.01087 0.93079 1.57441 1.2526 1.2526C1.57441 0.93079 2.01087 0.75 2.46598 0.75H16.1938C16.6489 0.75 17.0854 0.93079 17.4072 1.2526C17.729 1.57441 17.9098 2.01087 17.9098 2.46598V12.7618Z" stroke="white" stroke-width="1.5" stroke-linecap="round" stroke-linejoin="round"/>
<path d="M5.03906 7.61328H13.6189" stroke="white" stroke-width="1.5" stroke-linecap="round" stroke-linejoin="round"/>
<path d="M5.03906 11.0449H10.187" stroke="white" stroke-width="1.5" stroke-linecap="round" stroke-linejoin="round"/>
<path d="M5.03906 4.18164H11.903" stroke="white" stroke-width="1.5" stroke-linecap="round" stroke-linejoin="round"/>
</svg>
